<svg xmlns="http://www.w3.org/2000/svg" xmlns:xlink="http://www.w3.org/1999/xlink" viewBox="0 0 500 500"><defs><style>.cls-1{isolation:isolate;}.cls-2{fill:#a8cde5;}.cls-3{fill:#cbdfef;}.cls-11,.cls-4{fill:#f8fbff;}.cls-5{fill:#7dc9c6;}.cls-6{fill:none;}.cls-7{fill:#a0e0dc;}.cls-8{fill:#69b7b1;}.cls-9{mix-blend-mode:overlay;fill:url(#linear-gradient);}.cls-10{fill:#444f5c;opacity:0.8;}.cls-11,.cls-16{opacity:0.5;}.cls-12{fill:#6ad879;}.cls-13{fill:#674839;}.cls-14{fill:#68b575;}.cls-15{fill:#08fcea;}</style><linearGradient id="linear-gradient" x1="5468.99" y1="322.58" x2="5244.74" y2="265.14" gradientTransform="translate(-5198.15)" gradientUnits="userSpaceOnUse"><stop offset="0" stop-color="#fff" stop-opacity="0"/><stop offset="1" stop-color="#f8fbff"/></linearGradient></defs><title>digital-branding</title><g class="cls-1"><g id="Background_1" data-name="Background 1"><g id="_Grupo_" data-name="&lt;Grupo&gt;"><g id="_Grupo_2" data-name="&lt;Grupo&gt;"><g id="_Grupo_3" data-name="&lt;Grupo&gt;"><g id="_Grupo_4" data-name="&lt;Grupo&gt;"><path id="_Trazado_" data-name="&lt;Trazado&gt;" class="cls-2" d="M419.87,346.62l-115.8-66.86V453.14a12.07,12.07,0,0,0,5.81-1.61l60.8-35.1,77.42-44.7a5,5,0,0,0,2.54-4.41V350.25Z"/><path id="_Trazado_2" data-name="&lt;Trazado&gt;" class="cls-3" d="M203.55,221.73a12.2,12.2,0,0,0-12.2,0l-121.23,70v-2.86H50.59v16.89h0a5,5,0,0,0,2.53,4.59L297.68,451.53a12.28,12.28,0,0,0,6.39,1.61V279.76Z"/><path id="_Trazado_3" data-name="&lt;Trazado&gt;" class="cls-4" d="M297.68,434.46,53.14,293.27a5.1,5.1,0,0,1,0-8.82l138.21-79.79a12.2,12.2,0,0,1,12.2,0L448.1,345.84a5.1,5.1,0,0,1,0,8.82l-138.22,79.8A12.2,12.2,0,0,1,297.68,434.46Z"/><path id="_Trazado_4" data-name="&lt;Trazado&gt;" class="cls-2" d="M372.8,379c5.05.78,8.05,3.79,6.7,6.7s-6.55,4.66-11.61,3.87-8.06-3.78-6.7-6.7S367.74,378.23,372.8,379Z"/><path id="_Trazado_5" data-name="&lt;Trazado&gt;" class="cls-5" d="M418.55,342.41,197.65,214.88a.36.36,0,0,0-.4,0l-128.14,74,221.1,127.65Z"/><g id="_Grupo_5" data-name="&lt;Grupo&gt;"><polygon id="_Trazado_6" data-name="&lt;Trazado&gt;" class="cls-6" points="157.97 237.56 157.97 340.16 177.33 351.34 177.33 226.38 157.97 237.56"/><polygon id="_Trazado_7" data-name="&lt;Trazado&gt;" class="cls-6" points="198.19 215.19 198.19 363.38 290.21 416.51 290.21 268.31 198.19 215.19"/><polygon id="_Trazado_8" data-name="&lt;Trazado&gt;" class="cls-6" points="69.11 288.86 145.5 332.97 145.5 244.75 69.11 288.86"/><polygon id="_Trazado_9" data-name="&lt;Trazado&gt;" class="cls-6" points="418.55 342.41 375.56 317.59 375.56 367.24 418.55 342.41"/><polygon id="_Trazado_10" data-name="&lt;Trazado&gt;" class="cls-6" points="354.71 379.27 354.71 305.55 331.92 292.39 331.92 392.43 354.71 379.27"/><polygon id="_Trazado_11" data-name="&lt;Trazado&gt;" class="cls-7" points="331.92 292.39 290.21 268.31 290.21 416.51 331.92 392.43 331.92 292.39"/><polygon id="_Trazado_12" data-name="&lt;Trazado&gt;" class="cls-7" points="375.56 367.24 375.56 317.59 354.71 305.55 354.71 379.27 375.56 367.24"/><path id="_Trazado_13" data-name="&lt;Trazado&gt;" class="cls-7" d="M197.65,214.88a.36.36,0,0,0-.4,0l-19.92,11.5v125l20.85,12V215.19Z"/><polygon id="_Trazado_14" data-name="&lt;Trazado&gt;" class="cls-7" points="145.5 244.75 145.5 332.97 157.97 340.16 157.97 237.56 145.5 244.75"/></g><path id="_Trazado_15" data-name="&lt;Trazado&gt;" class="cls-8" d="M197.25,218.76a.41.41,0,0,1,.2,0,.31.31,0,0,1,.2.06L415.19,344.36l3.36-1.95L197.65,214.88a.36.36,0,0,0-.4,0l-128.14,74,3.37,1.94Z"/><path id="_Trazado_16" data-name="&lt;Trazado&gt;" class="cls-9" d="M418.55,342.41,197.65,214.88a.36.36,0,0,0-.4,0l-128.14,74,221.1,127.65Z"/></g><g id="_Grupo_6" data-name="&lt;Grupo&gt;"><path id="_Trazado_17" data-name="&lt;Trazado&gt;" class="cls-10" d="M428,308.71,195.17,174.31a.37.37,0,0,0-.21-.06.38.38,0,0,0-.22.06l-135,78,233,134.53Z"/><g id="_Grupo_7" data-name="&lt;Grupo&gt;"><path id="_Trazado_compuesto_" data-name="&lt;Trazado compuesto&gt;" class="cls-11" d="M190.33,312a.51.51,0,0,1-.43-.25.5.5,0,0,1,.18-.68l4.28-2.58a.5.5,0,0,1,.52.86l-4.29,2.57A.5.5,0,0,1,190.33,312Zm12-7.21a.49.49,0,0,1-.43-.24.5.5,0,0,1,.17-.69l4.29-2.57a.5.5,0,0,1,.68.17.49.49,0,0,1-.17.69l-4.29,2.57A.45.45,0,0,1,202.34,304.78Zm12-7.2a.52.52,0,0,1-.43-.24.51.51,0,0,1,.18-.69l4.28-2.57a.5.5,0,0,1,.52.86l-4.29,2.57A.48.48,0,0,1,214.34,297.58Zm12-7.2a.51.51,0,0,1-.43-.24.5.5,0,0,1,.17-.69l4.29-2.57a.49.49,0,0,1,.68.17.48.48,0,0,1-.17.68l-4.28,2.58A.59.59,0,0,1,226.35,290.38Zm12-7.2a.51.51,0,0,1-.43-.25.5.5,0,0,1,.18-.68l4.28-2.58a.5.5,0,0,1,.52.86l-4.29,2.57A.5.5,0,0,1,238.35,283.18Zm12-7.21a.49.49,0,0,1-.43-.24.5.5,0,0,1,.17-.69l4.29-2.57a.5.5,0,0,1,.68.17.49.49,0,0,1-.17.69l-4.28,2.57A.48.48,0,0,1,250.36,276Zm12-7.2a.52.52,0,0,1-.43-.24.51.51,0,0,1,.18-.69l4.28-2.57a.5.5,0,0,1,.52.86l-4.29,2.57A.48.48,0,0,1,262.36,268.77Z"/><polygon id="_Trazado_18" data-name="&lt;Trazado&gt;" class="cls-12" points="167.17 232.21 137 214.56 190.08 184.07 220.25 201.71 167.17 232.21"/><g id="_Grupo_8" data-name="&lt;Grupo&gt;"><path id="_Trazado_19" data-name="&lt;Trazado&gt;" class="cls-13" d="M160.25,233.76a1,1,0,0,1-1-1V213.09a1,1,0,0,1,2,0v19.67A1,1,0,0,1,160.25,233.76Z"/><ellipse id="_Trazado_20" data-name="&lt;Trazado&gt;" class="cls-14" cx="160.25" cy="215.51" rx="6.67" ry="9.08"/></g><g id="_Grupo_9" data-name="&lt;Grupo&gt;"><polygon id="_Trazado_21" data-name="&lt;Trazado&gt;" class="cls-4" points="140.25 198.25 123.62 188.65 140.25 179.05 156.88 188.65 140.25 198.25"/><polygon id="_Trazado_22" data-name="&lt;Trazado&gt;" class="cls-3" points="140.25 247.58 123.62 237.98 123.62 188.65 140.25 198.25 140.25 247.58"/><polygon id="_Trazado_23" data-name="&lt;Trazado&gt;" class="cls-2" points="140.25 247.58 140.25 198.25 156.88 188.65 156.88 237.98 140.25 247.58"/></g><g id="_Grupo_10" data-name="&lt;Grupo&gt;"><polygon id="_Trazado_24" data-name="&lt;Trazado&gt;" class="cls-4" points="239.08 201.41 208.71 183.71 220.25 177.05 260.67 189.31 239.08 201.41"/><polygon id="_Trazado_25" data-name="&lt;Trazado&gt;" class="cls-3" points="239.08 235.63 208.71 217.93 208.71 183.71 239.08 201.41 239.08 235.63"/><polygon id="_Trazado_26" data-name="&lt;Trazado&gt;" class="cls-2" points="239.08 235.63 239.08 201.41 260.67 189.31 260.67 223.53 239.08 235.63"/></g><g id="_Grupo_11" data-name="&lt;Grupo&gt;"><polygon id="_Trazado_27" data-name="&lt;Trazado&gt;" class="cls-4" points="109.23 192.89 85.01 178.91 109.23 164.93 133.44 178.91 109.23 192.89"/><polygon id="_Trazado_28" data-name="&lt;Trazado&gt;" class="cls-3" points="109.23 264.72 85.01 250.74 85.01 178.91 109.23 192.89 109.23 264.72"/><polygon id="_Trazado_29" data-name="&lt;Trazado&gt;" class="cls-2" points="109.23 264.72 109.23 192.89 133.44 178.91 133.44 250.74 109.23 264.72"/></g><g id="_Grupo_12" data-name="&lt;Grupo&gt;"><path id="_Trazado_30" data-name="&lt;Trazado&gt;" class="cls-13" d="M101.64,264.89a1,1,0,0,1-1-1V244.23a1,1,0,0,1,2,0v19.66A1,1,0,0,1,101.64,264.89Z"/><ellipse id="_Trazado_31" data-name="&lt;Trazado&gt;" class="cls-14" cx="101.64" cy="246.64" rx="6.67" ry="9.08"/></g><path id="_Trazado_32" data-name="&lt;Trazado&gt;" class="cls-15" d="M172.59,204.91a4.08,4.08,0,0,0,1.87,4.29c2.2,1.1,4.68-.6,7-1.24a8.31,8.31,0,0,1,6.75,1.12,11.63,11.63,0,0,0,2.2,1.42c1.42.56,3,.13,4.48-.33a9,9,0,0,0,3.22-1.57c2-1.79,2.11-5.13.78-7.51C193.84,192,174.47,193.81,172.59,204.91Z"/><g id="_Grupo_13" data-name="&lt;Grupo&gt;"><polygon id="_Trazado_33" data-name="&lt;Trazado&gt;" class="cls-4" points="260.67 198.25 244.04 188.65 260.67 179.05 277.3 188.65 260.67 198.25"/><polygon id="_Trazado_34" data-name="&lt;Trazado&gt;" class="cls-3" points="260.67 247.58 244.04 237.98 244.04 188.65 260.67 198.25 260.67 247.58"/><polygon id="_Trazado_35" data-name="&lt;Trazado&gt;" class="cls-2" points="260.67 247.58 260.67 198.25 277.3 188.65 277.3 237.98 260.67 247.58"/></g><g id="_Grupo_14" data-name="&lt;Grupo&gt;"><polygon id="_Trazado_36" data-name="&lt;Trazado&gt;" class="cls-4" points="311.06 205.15 268.98 181.64 285.61 172.04 327.69 195.55 311.06 205.15"/><polygon id="_Trazado_37" data-name="&lt;Trazado&gt;" class="cls-3" points="311.06 277.14 268.98 253.63 268.98 181.64 311.06 205.15 311.06 277.14"/><polygon id="_Trazado_38" data-name="&lt;Trazado&gt;" class="cls-2" points="311.06 277.14 311.06 205.15 327.69 195.55 327.69 267.54 311.06 277.14"/></g><g id="_Grupo_15" data-name="&lt;Grupo&gt;"><polygon id="_Trazado_39" data-name="&lt;Trazado&gt;" class="cls-4" points="211.94 248.27 187.76 234.68 204.39 225.07 228.56 238.67 211.94 248.27"/><polygon id="_Trazado_40" data-name="&lt;Trazado&gt;" class="cls-3" points="211.94 269.52 187.76 255.92 187.76 234.68 211.94 248.27 211.94 269.52"/><polygon id="_Trazado_41" data-name="&lt;Trazado&gt;" class="cls-2" points="211.94 269.52 211.94 248.27 228.56 238.67 228.56 259.92 211.94 269.52"/></g><g id="_Grupo_16" data-name="&lt;Grupo&gt;"><path id="_Trazado_42" data-name="&lt;Trazado&gt;" class="cls-13" d="M319.38,281.39a1,1,0,0,1-1-1V260.73a1,1,0,0,1,2,0v19.66A1,1,0,0,1,319.38,281.39Z"/><ellipse id="_Trazado_43" data-name="&lt;Trazado&gt;" class="cls-14" cx="319.38" cy="263.14" rx="6.67" ry="9.08"/></g><g id="_Grupo_17" data-name="&lt;Grupo&gt;"><path id="_Trazado_44" data-name="&lt;Trazado&gt;" class="cls-13" d="M334.36,290.48a1,1,0,0,1-1-1V269.81a1,1,0,0,1,2,0v19.67A1,1,0,0,1,334.36,290.48Z"/><ellipse id="_Trazado_45" data-name="&lt;Trazado&gt;" class="cls-14" cx="334.36" cy="272.23" rx="6.67" ry="9.08"/></g><g id="_Grupo_18" data-name="&lt;Grupo&gt;"><path id="_Trazado_46" data-name="&lt;Trazado&gt;" class="cls-13" d="M349.34,299.56a1,1,0,0,1-1-1V278.89a1,1,0,0,1,2,0v19.67A1,1,0,0,1,349.34,299.56Z"/><ellipse id="_Trazado_47" data-name="&lt;Trazado&gt;" class="cls-14" cx="349.34" cy="281.31" rx="6.67" ry="9.08"/></g><g id="_Grupo_19" data-name="&lt;Grupo&gt;"><path id="_Trazado_48" data-name="&lt;Trazado&gt;" class="cls-13" d="M364.32,308.64a1,1,0,0,1-1-1V288a1,1,0,0,1,2,0v19.66A1,1,0,0,1,364.32,308.64Z"/><ellipse id="_Trazado_49" data-name="&lt;Trazado&gt;" class="cls-14" cx="364.32" cy="290.39" rx="6.67" ry="9.08"/></g><g id="_Grupo_20" data-name="&lt;Grupo&gt;"><path id="_Trazado_50" data-name="&lt;Trazado&gt;" class="cls-13" d="M379.3,317.73a1,1,0,0,1-1-1V297.06a1,1,0,0,1,2,0v19.67A1,1,0,0,1,379.3,317.73Z"/><ellipse id="_Trazado_51" data-name="&lt;Trazado&gt;" class="cls-14" cx="379.3" cy="299.48" rx="6.67" ry="9.08"/></g><g id="_Grupo_21" data-name="&lt;Grupo&gt;"><polygon id="_Trazado_52" data-name="&lt;Trazado&gt;" class="cls-4" points="207.27 270.65 165.19 247.14 181.82 237.54 223.9 261.05 207.27 270.65"/><polygon id="_Trazado_53" data-name="&lt;Trazado&gt;" class="cls-3" points="207.27 291.9 165.19 268.38 165.19 247.14 207.27 270.65 207.27 291.9"/><polygon id="_Trazado_54" data-name="&lt;Trazado&gt;" class="cls-2" points="207.27 291.9 207.27 270.65 223.9 261.05 223.9 282.3 207.27 291.9"/></g><g id="_Grupo_22" data-name="&lt;Grupo&gt;"><polygon id="_Trazado_55" data-name="&lt;Trazado&gt;" class="cls-4" points="180.37 285.37 138.29 261.85 154.92 252.25 197 275.76 180.37 285.37"/><polygon id="_Trazado_56" data-name="&lt;Trazado&gt;" class="cls-3" points="180.37 306.61 138.29 283.1 138.29 261.85 180.37 285.37 180.37 306.61"/><polygon id="_Trazado_57" data-name="&lt;Trazado&gt;" class="cls-2" points="180.37 306.61 180.37 285.37 197 275.76 197 297.01 180.37 306.61"/></g><g id="_Grupo_23" data-name="&lt;Grupo&gt;"><polygon id="_Trazado_58" data-name="&lt;Trazado&gt;" class="cls-4" points="258.75 280.37 242.38 270.65 259.01 261.05 275.38 270.77 258.75 280.37"/><polygon id="_Trazado_59" data-name="&lt;Trazado&gt;" class="cls-3" points="258.75 301.62 242.38 291.9 242.38 270.65 258.75 280.37 258.75 301.62"/><polygon id="_Trazado_60" data-name="&lt;Trazado&gt;" class="cls-2" points="258.75 301.62 258.75 280.37 275.38 270.77 275.38 292.02 258.75 301.62"/></g><g id="_Grupo_24" data-name="&lt;Grupo&gt;"><polygon id="_Trazado_61" data-name="&lt;Trazado&gt;" class="cls-4" points="280.4 293.32 264.03 283.59 280.66 273.99 297.03 283.72 280.4 293.32"/><polygon id="_Trazado_62" data-name="&lt;Trazado&gt;" class="cls-3" points="280.4 314.56 264.03 304.84 264.03 283.59 280.4 293.32 280.4 314.56"/><polygon id="_Trazado_63" data-name="&lt;Trazado&gt;" class="cls-2" points="280.4 314.56 280.4 293.32 297.03 283.72 297.03 304.96 280.4 314.56"/></g><g id="_Grupo_25" data-name="&lt;Grupo&gt;"><polygon id="_Trazado_64" data-name="&lt;Trazado&gt;" class="cls-4" points="302.05 306.26 285.67 296.54 302.3 286.94 318.68 296.66 302.05 306.26"/><polygon id="_Trazado_65" data-name="&lt;Trazado&gt;" class="cls-3" points="302.05 327.51 285.67 317.78 285.67 296.54 302.05 306.26 302.05 327.51"/><polygon id="_Trazado_66" data-name="&lt;Trazado&gt;" class="cls-2" points="302.05 327.51 302.05 306.26 318.68 296.66 318.68 317.91 302.05 327.51"/></g><g id="_Grupo_26" data-name="&lt;Grupo&gt;"><polygon id="_Trazado_67" data-name="&lt;Trazado&gt;" class="cls-4" points="323.7 319.21 307.32 309.48 323.95 299.88 340.33 309.61 323.7 319.21"/><polygon id="_Trazado_68" data-name="&lt;Trazado&gt;" class="cls-3" points="323.7 340.45 307.32 330.73 307.32 309.48 323.7 319.21 323.7 340.45"/><polygon id="_Trazado_69" data-name="&lt;Trazado&gt;" class="cls-2" points="323.7 340.45 323.7 319.21 340.33 309.61 340.33 330.85 323.7 340.45"/></g><g id="_Grupo_27" data-name="&lt;Grupo&gt;"><polygon id="_Trazado_70" data-name="&lt;Trazado&gt;" class="cls-4" points="237.1 292.72 220.73 282.99 237.36 273.39 253.73 283.12 237.1 292.72"/><polygon id="_Trazado_71" data-name="&lt;Trazado&gt;" class="cls-3" points="237.1 313.97 220.73 304.24 220.73 282.99 237.1 292.72 237.1 313.97"/><polygon id="_Trazado_72" data-name="&lt;Trazado&gt;" class="cls-2" points="237.1 313.97 237.1 292.72 253.73 283.12 253.73 304.37 237.1 313.97"/></g><g id="_Grupo_28" data-name="&lt;Grupo&gt;"><polygon id="_Trazado_73" data-name="&lt;Trazado&gt;" class="cls-4" points="258.75 305.66 242.38 295.94 259.01 286.34 275.38 296.06 258.75 305.66"/><polygon id="_Trazado_74" data-name="&lt;Trazado&gt;" class="cls-3" points="258.75 326.91 242.38 317.19 242.38 295.94 258.75 305.66 258.75 326.91"/><polygon id="_Trazado_75" data-name="&lt;Trazado&gt;" class="cls-2" points="258.75 326.91 258.75 305.66 275.38 296.06 275.38 317.31 258.75 326.91"/></g><g id="_Grupo_29" data-name="&lt;Grupo&gt;"><polygon id="_Trazado_76" data-name="&lt;Trazado&gt;" class="cls-4" points="280.4 318.61 264.03 308.88 280.66 299.28 297.03 309.01 280.4 318.61"/><polygon id="_Trazado_77" data-name="&lt;Trazado&gt;" class="cls-3" points="280.4 339.85 264.03 330.13 264.03 308.88 280.4 318.61 280.4 339.85"/><polygon id="_Trazado_78" data-name="&lt;Trazado&gt;" class="cls-2" points="280.4 339.85 280.4 318.61 297.03 309.01 297.03 330.25 280.4 339.85"/></g><g id="_Grupo_30" data-name="&lt;Grupo&gt;"><polygon id="_Trazado_79" data-name="&lt;Trazado&gt;" class="cls-4" points="302.05 331.55 285.67 321.82 302.3 312.22 318.68 321.95 302.05 331.55"/><polygon id="_Trazado_80" data-name="&lt;Trazado&gt;" class="cls-3" points="302.05 352.8 285.67 343.07 285.67 321.82 302.05 331.55 302.05 352.8"/><polygon id="_Trazado_81" data-name="&lt;Trazado&gt;" class="cls-2" points="302.05 352.8 302.05 331.55 318.68 321.95 318.68 343.2 302.05 352.8"/></g><g id="_Grupo_31" data-name="&lt;Grupo&gt;"><polygon id="_Trazado_82" data-name="&lt;Trazado&gt;" class="cls-4" points="215.46 305.65 199.08 295.93 215.71 286.32 232.09 296.05 215.46 305.65"/><polygon id="_Trazado_83" data-name="&lt;Trazado&gt;" class="cls-3" points="215.46 326.9 199.08 317.17 199.08 295.93 215.46 305.65 215.46 326.9"/><polygon id="_Trazado_84" data-name="&lt;Trazado&gt;" class="cls-2" points="215.46 326.9 215.46 305.65 232.09 296.05 232.09 317.3 215.46 326.9"/></g><g id="_Grupo_32" data-name="&lt;Grupo&gt;"><polygon id="_Trazado_85" data-name="&lt;Trazado&gt;" class="cls-4" points="237.1 318.6 220.73 308.87 237.36 299.27 253.73 309 237.1 318.6"/><polygon id="_Trazado_86" data-name="&lt;Trazado&gt;" class="cls-3" points="237.1 339.84 220.73 330.12 220.73 308.87 237.1 318.6 237.1 339.84"/><polygon id="_Trazado_87" data-name="&lt;Trazado&gt;" class="cls-2" points="237.1 339.84 237.1 318.6 253.73 309 253.73 330.24 237.1 339.84"/></g><g id="_Grupo_33" data-name="&lt;Grupo&gt;"><polygon id="_Trazado_88" data-name="&lt;Trazado&gt;" class="cls-4" points="258.75 331.54 242.38 321.81 259.01 312.21 275.38 321.94 258.75 331.54"/><polygon id="_Trazado_89" data-name="&lt;Trazado&gt;" class="cls-3" points="258.75 352.79 242.38 343.06 242.38 321.81 258.75 331.54 258.75 352.79"/><polygon id="_Trazado_90" data-name="&lt;Trazado&gt;" class="cls-2" points="258.75 352.79 258.75 331.54 275.38 321.94 275.38 343.19 258.75 352.79"/></g><g id="_Grupo_34" data-name="&lt;Grupo&gt;"><polygon id="_Trazado_91" data-name="&lt;Trazado&gt;" class="cls-4" points="280.4 344.48 264.03 334.76 280.66 325.16 297.03 334.88 280.4 344.48"/><polygon id="_Trazado_92" data-name="&lt;Trazado&gt;" class="cls-3" points="280.4 365.73 264.03 356 264.03 334.76 280.4 344.48 280.4 365.73"/><polygon id="_Trazado_93" data-name="&lt;Trazado&gt;" class="cls-2" points="280.4 365.73 280.4 344.48 297.03 334.88 297.03 356.13 280.4 365.73"/></g><g id="_Grupo_35" data-name="&lt;Grupo&gt;"><path id="_Trazado_94" data-name="&lt;Trazado&gt;" class="cls-13" d="M230.56,273.39a1,1,0,0,1-1-1V252.73a1,1,0,1,1,2,0v19.66A1,1,0,0,1,230.56,273.39Z"/><ellipse id="_Trazado_95" data-name="&lt;Trazado&gt;" class="cls-14" cx="230.56" cy="255.14" rx="6.67" ry="9.08"/></g><g id="_Grupo_36" data-name="&lt;Grupo&gt;"><path id="_Trazado_96" data-name="&lt;Trazado&gt;" class="cls-13" d="M293.86,369.75a1,1,0,0,1-1-1V349.08a1,1,0,0,1,2,0v19.67A1,1,0,0,1,293.86,369.75Z"/><ellipse id="_Trazado_97" data-name="&lt;Trazado&gt;" class="cls-14" cx="293.86" cy="351.5" rx="6.67" ry="9.08"/></g><g id="_Grupo_37" data-name="&lt;Grupo&gt;"><path id="_Trazado_98" data-name="&lt;Trazado&gt;" class="cls-13" d="M308.71,361.75a1,1,0,0,1-1-1V341.08a1,1,0,0,1,2,0v19.67A1,1,0,0,1,308.71,361.75Z"/><ellipse id="_Trazado_99" data-name="&lt;Trazado&gt;" class="cls-14" cx="308.71" cy="343.5" rx="6.67" ry="9.08"/></g><g id="_Grupo_38" data-name="&lt;Grupo&gt;"><path id="_Trazado_100" data-name="&lt;Trazado&gt;" class="cls-13" d="M323.57,353.75a1,1,0,0,1-1-1V333.08a1,1,0,0,1,2,0v19.67A1,1,0,0,1,323.57,353.75Z"/><ellipse id="_Trazado_101" data-name="&lt;Trazado&gt;" class="cls-14" cx="323.57" cy="335.5" rx="6.67" ry="9.08"/></g><g id="_Grupo_39" data-name="&lt;Grupo&gt;"><path id="_Trazado_102" data-name="&lt;Trazado&gt;" class="cls-13" d="M338.42,345.75a1,1,0,0,1-1-1V325.08a1,1,0,0,1,2,0v19.67A1,1,0,0,1,338.42,345.75Z"/><ellipse id="_Trazado_103" data-name="&lt;Trazado&gt;" class="cls-14" cx="338.42" cy="327.5" rx="6.67" ry="9.08"/></g><g id="_Grupo_40" data-name="&lt;Grupo&gt;" class="cls-16"><path id="_Trazado_104" data-name="&lt;Trazado&gt;" class="cls-4" d="M120,271.06a.5.5,0,0,1-.25-.93l2.16-1.26a.5.5,0,1,1,.5.86L120.25,271A.45.45,0,0,1,120,271.06Z"/><path id="_Trazado_compuesto_2" data-name="&lt;Trazado compuesto&gt;" class="cls-4" d="M129.83,265.32a.5.5,0,0,1-.26-.94l4.26-2.49a.51.51,0,0,1,.69.18.51.51,0,0,1-.18.69l-4.26,2.49A.59.59,0,0,1,129.83,265.32Zm11.92-7a.5.5,0,0,1-.43-.24.51.51,0,0,1,.18-.69l4.26-2.49a.51.51,0,0,1,.69.18.51.51,0,0,1-.18.69L142,258.28A.58.58,0,0,1,141.75,258.34Zm11.93-7a.5.5,0,0,1-.25-.93l4.26-2.49a.5.5,0,0,1,.5.86l-4.26,2.49A.43.43,0,0,1,153.68,251.37Zm11.93-7a.5.5,0,0,1-.25-.93l4.26-2.49a.5.5,0,0,1,.5.86l-4.26,2.49A.45.45,0,0,1,165.61,244.4Zm11.93-7a.5.5,0,0,1-.25-.93l4.26-2.49a.5.5,0,1,1,.5.86l-4.26,2.49A.45.45,0,0,1,177.54,237.43Zm11.93-7a.48.48,0,0,1-.43-.25.5.5,0,0,1,.17-.68l4.27-2.49a.5.5,0,0,1,.5.86l-4.26,2.49A.47.47,0,0,1,189.47,230.46Z"/><path id="_Trazado_105" data-name="&lt;Trazado&gt;" class="cls-4" d="M201.4,223.49a.51.51,0,0,1-.44-.25.49.49,0,0,1,.18-.68l2.41-1.41,2.42,1.4a.5.5,0,0,1-.5.86l-1.92-1.11-1.9,1.12A.47.47,0,0,1,201.4,223.49Z"/><path id="_Trazado_compuesto_3" data-name="&lt;Trazado compuesto&gt;" class="cls-4" d="M368.11,317.65a.54.54,0,0,1-.25-.06L363.4,315a.51.51,0,0,1-.18-.69.5.5,0,0,1,.68-.18l4.46,2.59a.5.5,0,0,1-.25.93Zm-12.49-7.24a.45.45,0,0,1-.25-.07l-4.46-2.59a.5.5,0,1,1,.5-.86l4.46,2.59a.5.5,0,0,1-.25.93Zm-12.49-7.25a.51.51,0,0,1-.25-.06l-4.47-2.59a.5.5,0,1,1,.51-.86l4.46,2.58a.51.51,0,0,1,.18.69A.49.49,0,0,1,343.13,303.16Zm-12.5-7.24a.47.47,0,0,1-.25-.07l-4.46-2.58a.51.51,0,0,1-.18-.69.5.5,0,0,1,.68-.18l4.47,2.59a.5.5,0,0,1,.18.68A.51.51,0,0,1,330.63,295.92Zm-12.49-7.24a.47.47,0,0,1-.25-.07L313.43,286a.5.5,0,0,1,.5-.86l4.46,2.58a.52.52,0,0,1,.19.69A.52.52,0,0,1,318.14,288.68Zm-12.49-7.25a.57.57,0,0,1-.25-.06l-4.46-2.59a.5.5,0,0,1,.5-.87l4.46,2.59a.5.5,0,0,1-.25.93Zm-12.49-7.24a.45.45,0,0,1-.25-.07l-4.46-2.59a.5.5,0,1,1,.5-.86l4.46,2.59a.5.5,0,0,1-.25.93Zm-12.49-7.25a.54.54,0,0,1-.25-.06L276,264.29a.5.5,0,0,1-.19-.68.52.52,0,0,1,.69-.19l4.46,2.59a.51.51,0,0,1,.18.69A.49.49,0,0,1,280.67,266.94Zm-12.49-7.24a.48.48,0,0,1-.26-.07l-4.46-2.58a.51.51,0,0,1-.18-.69.5.5,0,0,1,.68-.18l4.47,2.59a.5.5,0,0,1-.25.93Zm-12.5-7.24a.47.47,0,0,1-.25-.07L251,249.8a.5.5,0,0,1,.5-.86l4.46,2.58a.52.52,0,0,1,.19.69A.51.51,0,0,1,255.68,252.46Zm-12.49-7.25a.57.57,0,0,1-.25-.06l-4.46-2.59a.5.5,0,0,1,.5-.87l4.46,2.59a.51.51,0,0,1,.19.68A.52.52,0,0,1,243.19,245.21ZM230.7,238a.45.45,0,0,1-.25-.07L226,235.31a.5.5,0,0,1,.5-.86L231,237a.5.5,0,0,1-.25.93Zm-12.49-7.25a.54.54,0,0,1-.25-.06l-4.46-2.59a.51.51,0,0,1-.19-.68.52.52,0,0,1,.69-.19l4.46,2.59a.51.51,0,0,1,.18.69A.49.49,0,0,1,218.21,230.72Z"/><path id="_Trazado_106" data-name="&lt;Trazado&gt;" class="cls-4" d="M378.3,323.56a.57.57,0,0,1-.25-.06l-2.16-1.26a.5.5,0,0,1,.5-.86l2.16,1.25a.5.5,0,0,1,.19.68A.51.51,0,0,1,378.3,323.56Z"/></g></g></g><path id="_Trazado_compuesto_4" data-name="&lt;Trazado compuesto&gt;" class="cls-4" d="M364.32,290.89a.5.5,0,0,1-.5-.5v-2a.5.5,0,0,1,1,0v2A.5.5,0,0,1,364.32,290.89Zm0-7a.5.5,0,0,1-.5-.5v-2a.5.5,0,0,1,1,0v2A.5.5,0,0,1,364.32,283.89Zm0-7a.5.5,0,0,1-.5-.5v-2a.5.5,0,0,1,1,0v2A.5.5,0,0,1,364.32,276.89Zm0-7a.5.5,0,0,1-.5-.5v-2a.5.5,0,0,1,1,0v2A.5.5,0,0,1,364.32,269.89Zm0-7a.5.5,0,0,1-.5-.5v-2a.5.5,0,0,1,1,0v2A.5.5,0,0,1,364.32,262.89Zm0-7a.5.5,0,0,1-.5-.5v-2a.5.5,0,0,1,1,0v2A.5.5,0,0,1,364.32,255.89Zm0-7a.5.5,0,0,1-.5-.5v-2a.5.5,0,0,1,1,0v2A.5.5,0,0,1,364.32,248.89Zm0-7a.5.5,0,0,1-.5-.5v-2a.5.5,0,0,1,1,0v2A.5.5,0,0,1,364.32,241.89Zm0-7a.5.5,0,0,1-.5-.5v-2a.5.5,0,0,1,1,0v2A.5.5,0,0,1,364.32,234.89Zm0-7a.5.5,0,0,1-.5-.5v-2a.5.5,0,0,1,1,0v2A.5.5,0,0,1,364.32,227.89Zm0-7a.5.5,0,0,1-.5-.5v-2a.5.5,0,0,1,1,0v2A.5.5,0,0,1,364.32,220.89Zm0-7a.5.5,0,0,1-.5-.5v-2a.5.5,0,0,1,1,0v2A.5.5,0,0,1,364.32,213.89Zm0-7a.5.5,0,0,1-.5-.5v-2a.5.5,0,0,1,1,0v2A.5.5,0,0,1,364.32,206.89Zm0-7a.5.5,0,0,1-.5-.5v-2a.5.5,0,0,1,1,0v2A.5.5,0,0,1,364.32,199.89Zm0-7a.5.5,0,0,1-.5-.5v-2a.5.5,0,0,1,1,0v2A.5.5,0,0,1,364.32,192.89Zm0-7a.5.5,0,0,1-.5-.5v-2a.5.5,0,0,1,1,0v2A.5.5,0,0,1,364.32,185.89Zm0-7a.5.5,0,0,1-.5-.5v-2a.5.5,0,0,1,1,0v2A.5.5,0,0,1,364.32,178.89Zm-.56-6.67a.54.54,0,0,1-.25-.06l-1.74-1a.5.5,0,0,1,.49-.87l1.74,1a.49.49,0,0,1,.19.68A.5.5,0,0,1,363.76,172.22ZM244,172.2a.5.5,0,0,1-.5-.5v-2a.5.5,0,0,1,.5-.5.5.5,0,0,1,.5.5v2A.5.5,0,0,1,244,172.2Zm113.62-3.42a.53.53,0,0,1-.24-.06l-1.75-1a.49.49,0,0,1-.18-.68.5.5,0,0,1,.68-.19l1.74,1a.5.5,0,0,1-.25.93Zm-6.09-3.44a.54.54,0,0,1-.25-.06l-1.74-1a.49.49,0,0,1-.19-.68.5.5,0,0,1,.68-.19l1.74,1a.5.5,0,0,1-.24.93ZM244,165.2a.5.5,0,0,1-.5-.5v-2a.5.5,0,0,1,.5-.5.5.5,0,0,1,.5.5v2A.5.5,0,0,1,244,165.2Zm101.43-3.3a.57.57,0,0,1-.25-.06l-1.74-1A.5.5,0,0,1,344,160l1.75,1a.5.5,0,0,1,.19.68A.52.52,0,0,1,345.47,161.9Zm-6.1-3.44a.53.53,0,0,1-.24-.06l-1.74-1a.49.49,0,0,1-.19-.68.5.5,0,0,1,.68-.19l1.74,1a.5.5,0,0,1-.25.93ZM244,158.2a.5.5,0,0,1-.5-.5v-2a.5.5,0,0,1,.5-.5.5.5,0,0,1,.5.5v2A.5.5,0,0,1,244,158.2ZM333.28,155A.54.54,0,0,1,333,155l-1.74-1a.49.49,0,0,1-.19-.68.51.51,0,0,1,.68-.19l1.74,1a.5.5,0,0,1-.24.93Zm-6.1-3.44a.57.57,0,0,1-.25-.06l-1.74-1a.5.5,0,1,1,.49-.87l1.75,1a.5.5,0,0,1,.19.68A.52.52,0,0,1,327.18,151.58ZM244,151.2a.5.5,0,0,1-.5-.5v-2a.5.5,0,0,1,.5-.5.5.5,0,0,1,.5.5v2A.5.5,0,0,1,244,151.2Zm77-3.06a.53.53,0,0,1-.24-.06l-1.74-1a.49.49,0,0,1-.19-.68.5.5,0,0,1,.68-.19l1.74,1a.49.49,0,0,1,.19.68A.5.5,0,0,1,321.08,148.14ZM315,144.7a.54.54,0,0,1-.25-.06l-1.74-1a.49.49,0,0,1-.19-.68.51.51,0,0,1,.68-.19l1.74,1a.5.5,0,0,1-.24.93Zm-71-.5a.5.5,0,0,1-.5-.5v-2a.5.5,0,0,1,.5-.5.5.5,0,0,1,.5.5v2A.5.5,0,0,1,244,144.2Zm64.85-2.94a.5.5,0,0,1-.24-.06l-1.75-1a.5.5,0,0,1-.19-.68.52.52,0,0,1,.69-.19l1.74,1a.5.5,0,0,1-.25.93Zm-6.1-3.44a.53.53,0,0,1-.24-.06l-1.74-1a.49.49,0,0,1-.19-.68.5.5,0,0,1,.68-.19l1.74,1a.49.49,0,0,1,.19.68A.5.5,0,0,1,302.79,137.82ZM244,137.2a.5.5,0,0,1-.5-.5v-2a.5.5,0,0,1,.5-.5.5.5,0,0,1,.5.5v2A.5.5,0,0,1,244,137.2Zm52.66-2.82a.54.54,0,0,1-.25-.06l-1.74-1a.49.49,0,0,1-.19-.68.51.51,0,0,1,.68-.19l1.74,1a.5.5,0,0,1-.24.93Zm-6.1-3.44a.5.5,0,0,1-.24-.06l-1.75-1a.5.5,0,0,1-.19-.68.52.52,0,0,1,.69-.19l1.74,1a.5.5,0,0,1-.25.93ZM244,130.2a.5.5,0,0,1-.5-.5v-2a.5.5,0,0,1,.5-.5.5.5,0,0,1,.5.5v2A.5.5,0,0,1,244,130.2Zm40.47-2.7a.54.54,0,0,1-.25-.06l-1.74-1a.49.49,0,0,1-.19-.68.5.5,0,0,1,.68-.19l1.74,1a.5.5,0,0,1-.24.93Zm-6.1-3.44a.57.57,0,0,1-.25-.06l-1.74-1a.5.5,0,1,1,.49-.87l1.75,1a.5.5,0,0,1-.25.93ZM244,123.2a.5.5,0,0,1-.5-.5v-2a.5.5,0,0,1,.5-.5.5.5,0,0,1,.5.5v2A.5.5,0,0,1,244,123.2Zm28.27-2.58a.5.5,0,0,1-.24-.06l-1.75-1a.5.5,0,0,1-.19-.68.52.52,0,0,1,.69-.19l1.74,1a.5.5,0,0,1-.25.93Zm-6.09-3.44a.54.54,0,0,1-.25-.06l-1.74-1a.49.49,0,0,1-.19-.68.5.5,0,0,1,.68-.19l1.74,1a.5.5,0,0,1-.24.93Zm-22.18-1a.5.5,0,0,1-.5-.5v-2a.5.5,0,0,1,.5-.5.5.5,0,0,1,.5.5v2A.5.5,0,0,1,244,116.2Zm16.08-2.46a.57.57,0,0,1-.25-.06l-1.74-1a.5.5,0,0,1,.49-.87l1.75,1a.5.5,0,0,1,.19.68A.52.52,0,0,1,260.12,113.74ZM254,110.3a.53.53,0,0,1-.24-.06l-1.74-1a.49.49,0,0,1-.19-.68.5.5,0,0,1,.68-.19l1.74,1a.5.5,0,0,1-.25.93Zm-10-1.1a.5.5,0,0,1-.5-.5v-2a.5.5,0,0,1,.5-.5.5.5,0,0,1,.5.5v2A.5.5,0,0,1,244,109.2Zm3.89-2.34a.54.54,0,0,1-.25-.06l-1.74-1a.49.49,0,0,1-.19-.68.5.5,0,0,1,.68-.19l1.74,1a.5.5,0,0,1-.24.93Z"/><path id="_Trazado_compuesto_5" data-name="&lt;Trazado compuesto&gt;" class="cls-4" d="M188.69,201a.5.5,0,0,1-.5-.5v-2a.5.5,0,0,1,1,0v2A.5.5,0,0,1,188.69,201Zm0-7a.5.5,0,0,1-.5-.5v-2a.5.5,0,0,1,1,0v2A.5.5,0,0,1,188.69,194Zm0-7a.5.5,0,0,1-.5-.5v-2a.5.5,0,0,1,1,0v2A.5.5,0,0,1,188.69,187ZM142,184.57a.5.5,0,0,1-.5-.5v-2a.5.5,0,0,1,1,0v2A.5.5,0,0,1,142,184.57ZM188.69,180a.5.5,0,0,1-.5-.5v-2a.5.5,0,0,1,1,0v2A.5.5,0,0,1,188.69,180ZM142,177.57a.5.5,0,0,1-.5-.5v-2a.5.5,0,0,1,1,0v2A.5.5,0,0,1,142,177.57ZM188.69,173a.5.5,0,0,1-.5-.5v-2a.5.5,0,0,1,1,0v2A.5.5,0,0,1,188.69,173ZM142,170.57a.5.5,0,0,1-.5-.5v-2a.5.5,0,0,1,1,0v2A.5.5,0,0,1,142,170.57ZM188.69,166a.5.5,0,0,1-.5-.5v-2a.5.5,0,0,1,1,0v2A.5.5,0,0,1,188.69,166ZM142,163.57a.5.5,0,0,1-.5-.5v-2a.5.5,0,0,1,1,0v2A.5.5,0,0,1,142,163.57ZM188.69,159a.5.5,0,0,1-.5-.5v-2a.5.5,0,0,1,1,0v2A.5.5,0,0,1,188.69,159ZM142,156.57a.5.5,0,0,1-.5-.5v-2a.5.5,0,0,1,1,0v2A.5.5,0,0,1,142,156.57ZM188.69,152a.5.5,0,0,1-.5-.5v-2a.5.5,0,0,1,1,0v2A.5.5,0,0,1,188.69,152ZM142,149.57a.5.5,0,0,1-.5-.5v-2a.5.5,0,0,1,1,0v2A.5.5,0,0,1,142,149.57ZM188.69,145a.5.5,0,0,1-.5-.5v-2a.5.5,0,0,1,1,0v2A.5.5,0,0,1,188.69,145ZM142,142.57a.5.5,0,0,1-.5-.5v-2a.5.5,0,0,1,1,0v2A.5.5,0,0,1,142,142.57ZM188.69,138a.5.5,0,0,1-.5-.5v-2a.5.5,0,0,1,1,0v2A.5.5,0,0,1,188.69,138ZM142,135.57a.5.5,0,0,1-.5-.5v-2a.5.5,0,0,1,1,0v2A.5.5,0,0,1,142,135.57ZM188.69,131a.5.5,0,0,1-.5-.5v-2a.5.5,0,1,1,1,0v2A.5.5,0,0,1,188.69,131ZM142,128.57a.5.5,0,0,1-.5-.5v-.71l1.7-.86a.5.5,0,0,1,.67.22.49.49,0,0,1-.22.67l-1.15.58v.1A.5.5,0,0,1,142,128.57Zm5.89-3.37a.5.5,0,0,1-.22-1l1.79-.9a.5.5,0,0,1,.44.9l-1.78.9A.59.59,0,0,1,147.89,125.2Zm40.8-1.21a.5.5,0,0,1-.5-.5v-2a.5.5,0,0,1,1,0v2A.5.5,0,0,1,188.69,124Zm-34.54-1.94a.5.5,0,0,1-.45-.27.5.5,0,0,1,.22-.67l1.79-.9a.49.49,0,0,1,.67.22.5.5,0,0,1-.22.67l-1.79.9A.44.44,0,0,1,154.15,122.05Zm6.25-3.14a.5.5,0,0,1-.23-1l1.79-.9a.5.5,0,0,1,.67.22.49.49,0,0,1-.22.67l-1.79.9A.43.43,0,0,1,160.4,118.91ZM188.69,117a.5.5,0,0,1-.5-.5v-2a.5.5,0,0,1,1,0v2A.5.5,0,0,1,188.69,117Zm-22-1.23a.48.48,0,0,1-.44-.28.49.49,0,0,1,.22-.67l1.78-.9a.5.5,0,0,1,.45.9l-1.78.9A.64.64,0,0,1,166.65,115.76Zm6.25-3.15a.5.5,0,0,1-.22-1l1.79-.89a.49.49,0,0,1,.67.22.51.51,0,0,1-.22.67l-1.79.9A.59.59,0,0,1,172.9,112.61ZM188.69,110a.5.5,0,0,1-.5-.5v-2a.5.5,0,0,1,1,0v2A.5.5,0,0,1,188.69,110Zm-9.53-.53a.5.5,0,0,1-.23-.94l1.79-.9a.5.5,0,0,1,.67.22.5.5,0,0,1-.22.67l-1.79.9A.44.44,0,0,1,179.16,109.46Zm6.25-3.14A.5.5,0,0,1,185,106a.51.51,0,0,1,.22-.67l1.79-.9a.5.5,0,0,1,.67.22.49.49,0,0,1-.22.67l-1.79.9A.43.43,0,0,1,185.41,106.32Z"/><path id="_Trazado_compuesto_6" data-name="&lt;Trazado compuesto&gt;" class="cls-4" d="M220.25,182.14a.5.5,0,0,1-.5-.5v-2a.5.5,0,0,1,1,0v2A.5.5,0,0,1,220.25,182.14Zm0-7a.5.5,0,0,1-.5-.5v-2a.5.5,0,0,1,1,0v2A.5.5,0,0,1,220.25,175.14Zm0-7a.5.5,0,0,1-.5-.5v-2a.5.5,0,0,1,1,0v2A.5.5,0,0,1,220.25,168.14Zm0-7a.5.5,0,0,1-.5-.5v-2a.5.5,0,0,1,1,0v2A.5.5,0,0,1,220.25,161.14Zm0-7a.5.5,0,0,1-.5-.5v-2a.5.5,0,0,1,1,0v2A.5.5,0,0,1,220.25,154.14Zm0-7a.5.5,0,0,1-.5-.5v-2a.5.5,0,0,1,1,0v2A.5.5,0,0,1,220.25,147.14Zm0-7a.5.5,0,0,1-.5-.5v-2a.5.5,0,0,1,1,0v2A.5.5,0,0,1,220.25,140.14Zm0-7a.5.5,0,0,1-.5-.5v-2a.5.5,0,0,1,1,0v2A.5.5,0,0,1,220.25,133.14Zm0-7a.5.5,0,0,1-.5-.5v-2a.5.5,0,1,1,1,0v2A.5.5,0,0,1,220.25,126.14Zm0-7a.5.5,0,0,1-.5-.5v-2a.5.5,0,1,1,1,0v2A.5.5,0,0,1,220.25,119.14Zm0-7a.5.5,0,0,1-.5-.5v-2a.5.5,0,1,1,1,0v2A.5.5,0,0,1,220.25,112.14Zm0-7a.5.5,0,0,1-.5-.5v-2a.5.5,0,1,1,1,0v2A.5.5,0,0,1,220.25,105.14Zm0-7a.5.5,0,0,1-.5-.5v-2a.5.5,0,1,1,1,0v2A.5.5,0,0,1,220.25,98.14Zm0-7a.5.5,0,0,1-.5-.5v-2a.5.5,0,0,1,1,0v2A.5.5,0,0,1,220.25,91.14Z"/><path id="_Trazado_compuesto_7" data-name="&lt;Trazado compuesto&gt;" class="cls-4" d="M109.23,184.57a.5.5,0,0,1-.5-.5v-2a.5.5,0,0,1,.5-.5.5.5,0,0,1,.5.5v2A.51.51,0,0,1,109.23,184.57Zm0-7a.5.5,0,0,1-.5-.5v-2a.5.5,0,0,1,.5-.5.5.5,0,0,1,.5.5v2A.51.51,0,0,1,109.23,177.57Zm0-7a.5.5,0,0,1-.5-.5v-2a.5.5,0,0,1,.5-.5.5.5,0,0,1,.5.5v2A.51.51,0,0,1,109.23,170.57Zm0-7a.5.5,0,0,1-.5-.5v-2a.5.5,0,0,1,.5-.5.5.5,0,0,1,.5.5v2A.51.51,0,0,1,109.23,163.57Zm0-7a.5.5,0,0,1-.5-.5v-2a.5.5,0,0,1,.5-.5.5.5,0,0,1,.5.5v2A.51.51,0,0,1,109.23,156.57Zm0-7a.5.5,0,0,1-.5-.5v-2a.5.5,0,0,1,.5-.5.5.5,0,0,1,.5.5v2A.51.51,0,0,1,109.23,149.57Zm0-7a.5.5,0,0,1-.5-.5v-2a.5.5,0,0,1,.5-.5.5.5,0,0,1,.5.5v2A.51.51,0,0,1,109.23,142.57Zm0-7a.5.5,0,0,1-.5-.5v-2a.5.5,0,0,1,.5-.5.5.5,0,0,1,.5.5v2A.51.51,0,0,1,109.23,135.57Zm0-7a.5.5,0,0,1-.5-.5v-2a.5.5,0,0,1,.5-.5.5.5,0,0,1,.5.5v2A.51.51,0,0,1,109.23,128.57Zm32.77-.4a.5.5,0,0,1-.5-.5.53.53,0,0,1,.5-.54.46.46,0,0,1,.5.45v.09A.5.5,0,0,1,142,128.17Zm0-5.09a.5.5,0,0,1-.5-.5v-2a.5.5,0,1,1,1,0v2A.5.5,0,0,1,142,123.08Zm-32.77-1.51a.5.5,0,0,1-.5-.5v-2a.5.5,0,0,1,.5-.5.5.5,0,0,1,.5.5v2A.51.51,0,0,1,109.23,121.57ZM142,116.08a.5.5,0,0,1-.5-.5v-2a.5.5,0,1,1,1,0v2A.5.5,0,0,1,142,116.08Zm-32.77-1.51a.5.5,0,0,1-.5-.5v-2l.57-.29a.5.5,0,1,1,.45.89h0v1.36A.51.51,0,0,1,109.23,114.57Zm4.76-4.06a.48.48,0,0,1-.44-.28.49.49,0,0,1,.22-.67l1.79-.9a.51.51,0,0,1,.67.22.52.52,0,0,1-.22.68l-1.79.89A.46.46,0,0,1,114,110.51Zm28-1.43a.5.5,0,0,1-.5-.5v-2a.5.5,0,1,1,1,0v2A.5.5,0,0,1,142,109.08Zm-21.75-1.72a.51.51,0,0,1-.45-.27.5.5,0,0,1,.22-.67l1.79-.9a.5.5,0,0,1,.67.22.49.49,0,0,1-.22.67l-1.79.9A.44.44,0,0,1,120.25,107.36Zm6.25-3.14a.48.48,0,0,1-.44-.28.49.49,0,0,1,.22-.67l1.78-.9a.51.51,0,0,1,.68.23.51.51,0,0,1-.23.67l-1.78.9A.64.64,0,0,1,126.5,104.22Zm15.5-2.14a.5.5,0,0,1-.5-.5v-2a.5.5,0,1,1,1,0v2A.5.5,0,0,1,142,102.08Zm-9.24-1a.49.49,0,0,1-.45-.28.5.5,0,0,1,.22-.67l1.79-.9a.51.51,0,0,1,.67.22.5.5,0,0,1-.22.67L133,101A.46.46,0,0,1,132.76,101.08ZM139,97.93a.5.5,0,0,1-.22-1l1.78-.89A.5.5,0,1,1,141,97l-1.78.9A.64.64,0,0,1,139,97.93Z"/><path id="_Trazado_compuesto_8" data-name="&lt;Trazado compuesto&gt;" class="cls-4" d="M302.05,189.09a.5.5,0,0,1-.5-.5v-2a.5.5,0,0,1,.5-.5.51.51,0,0,1,.5.5v2A.5.5,0,0,1,302.05,189.09Zm0-7a.5.5,0,0,1-.5-.5v-2a.5.5,0,0,1,.5-.5.51.51,0,0,1,.5.5v2A.5.5,0,0,1,302.05,182.09Zm0-7a.5.5,0,0,1-.5-.5v-2a.5.5,0,0,1,.5-.5.51.51,0,0,1,.5.5v2A.5.5,0,0,1,302.05,175.09Zm0-7a.5.5,0,0,1-.5-.5v-2a.5.5,0,0,1,.5-.5.51.51,0,0,1,.5.5v2A.5.5,0,0,1,302.05,168.09Zm0-7a.5.5,0,0,1-.5-.5v-2a.5.5,0,0,1,.5-.5.51.51,0,0,1,.5.5v2A.5.5,0,0,1,302.05,161.09Zm0-7a.5.5,0,0,1-.5-.5v-2a.5.5,0,0,1,.5-.5.51.51,0,0,1,.5.5v2A.5.5,0,0,1,302.05,154.09Zm0-7a.5.5,0,0,1-.5-.5v-2a.5.5,0,0,1,.5-.5.51.51,0,0,1,.5.5v2A.5.5,0,0,1,302.05,147.09Zm0-7a.5.5,0,0,1-.5-.5v-2a.5.5,0,0,1,.5-.5.51.51,0,0,1,.5.5v2A.5.5,0,0,1,302.05,140.09Zm0-7a.5.5,0,0,1-.5-.5v-2a.5.5,0,0,1,.5-.5.51.51,0,0,1,.5.5v2A.5.5,0,0,1,302.05,133.09Zm0-7a.5.5,0,0,1-.5-.5v-2a.5.5,0,0,1,.5-.5.51.51,0,0,1,.5.5v2A.5.5,0,0,1,302.05,126.09Zm0-7a.5.5,0,0,1-.5-.5v-2a.5.5,0,0,1,.5-.5.51.51,0,0,1,.5.5v2A.5.5,0,0,1,302.05,119.09Zm0-7a.5.5,0,0,1-.5-.5v-2a.5.5,0,0,1,.5-.5.51.51,0,0,1,.5.5v2A.5.5,0,0,1,302.05,112.09Zm0-7a.5.5,0,0,1-.5-.5v-2a.5.5,0,0,1,.5-.5.51.51,0,0,1,.5.5v2A.5.5,0,0,1,302.05,105.09Z"/><g id="_Grupo_41" data-name="&lt;Grupo&gt;"><path id="_Trazado_107" data-name="&lt;Trazado&gt;" class="cls-4" d="M234.41,72.07a.76.76,0,0,1-.66-.39,15.4,15.4,0,0,0-27,0,.75.75,0,0,1-1,.3.77.77,0,0,1-.3-1,16.91,16.91,0,0,1,29.64,0,.75.75,0,0,1-.3,1A.77.77,0,0,1,234.41,72.07Z"/><path id="_Trazado_108" data-name="&lt;Trazado&gt;" class="cls-4" d="M230.36,74.3a.77.77,0,0,1-.66-.39,10.78,10.78,0,0,0-18.9,0,.75.75,0,1,1-1.31-.72,12.27,12.27,0,0,1,21.52,0,.75.75,0,0,1-.29,1A.7.7,0,0,1,230.36,74.3Z"/><path id="_Trazado_109" data-name="&lt;Trazado&gt;" class="cls-4" d="M226.3,76.52a.73.73,0,0,1-.65-.39,6.16,6.16,0,0,0-10.8,0,.75.75,0,0,1-1.31-.73,7.65,7.65,0,0,1,13.42,0,.74.74,0,0,1-.3,1A.65.65,0,0,1,226.3,76.52Z"/><path id="_Trazado_110" data-name="&lt;Trazado&gt;" class="cls-4" d="M222.53,79.08a2.28,2.28,0,1,1-2.28-2.28A2.28,2.28,0,0,1,222.53,79.08Z"/></g><g id="_Grupo_42" data-name="&lt;Grupo&gt;"><path id="_Trazado_111" data-name="&lt;Trazado&gt;" class="cls-4" d="M376.55,160.28a1.45,1.45,0,0,1-.57-.72c-2.34-6.29-6.82-11.94-11.69-14.75s-9.35-2.33-11.69,1.24c-.17.27-.57.17-.88-.21a1.11,1.11,0,0,1-.26-1.16c2.57-3.93,7.49-4.45,12.83-1.37s10.26,9.29,12.83,16.18c.18.47.06.86-.25.87A.56.56,0,0,1,376.55,160.28Z"/><path id="_Trazado_112" data-name="&lt;Trazado&gt;" class="cls-4" d="M373,160.47a1.41,1.41,0,0,1-.57-.72,20.46,20.46,0,0,0-8.18-10.32c-3.41-2-6.54-1.63-8.18.87-.17.27-.57.17-.88-.21a1.12,1.12,0,0,1-.26-1.17c1.87-2.85,5.44-3.23,9.32-1s7.45,6.75,9.32,11.76c.17.46.06.85-.25.87A.68.68,0,0,1,373,160.47Z"/><path id="_Trazado_113" data-name="&lt;Trazado&gt;" class="cls-4" d="M369.53,160.67A1.5,1.5,0,0,1,369,160a11.68,11.68,0,0,0-4.67-5.9c-1.94-1.12-3.73-.93-4.67.5-.18.26-.57.17-.88-.21a1.13,1.13,0,0,1-.26-1.17c1.17-1.78,3.39-2,5.81-.62a14.54,14.54,0,0,1,5.81,7.33c.17.47.06.85-.25.87A.56.56,0,0,1,369.53,160.67Z"/><path id="_Trazado_114" data-name="&lt;Trazado&gt;" class="cls-4" d="M366.26,161.35c0,1.25-.88,1.76-2,1.13a4.34,4.34,0,0,1-2-3.41c0-1.26.88-1.77,2-1.14A4.35,4.35,0,0,1,366.26,161.35Z"/></g><path id="_Trazado_compuesto_9" data-name="&lt;Trazado compuesto&gt;" class="cls-4" d="M115.36,96a4.17,4.17,0,0,0-.37.26c-.11-2-1.57-2.77-3.37-1.73a5.47,5.47,0,0,0-1.1.86c-.67-1.86-2.52-2.41-4.69-1.15a11,11,0,0,0-5,8.14,2.48,2.48,0,0,0-.71.29,6,6,0,0,0-2.74,4.74c0,1.74,1.22,2.45,2.74,1.58l15.19-8.78A4,4,0,0,0,117.19,97C117.19,95.86,116.37,95.39,115.36,96Zm-1.53,4.13Z"/><path id="_Trazado_compuesto_10" data-name="&lt;Trazado compuesto&gt;" class="cls-4" d="M310.1,98a2.11,2.11,0,0,0-.38-.17,7.7,7.7,0,0,0-3.45-5.76,3.62,3.62,0,0,0-1.12-.42,11.37,11.37,0,0,0-4.81-6.72c-2.67-1.55-4.86-.43-5.06,2.48a5.17,5.17,0,0,0-.73-.55c-1.55-.89-2.8-.17-2.8,1.62a6.17,6.17,0,0,0,2.8,4.85l15.55,9c1,.6,1.87.11,1.87-1.08A4.13,4.13,0,0,0,310.1,98Zm-1.57,2.42h0Z"/><path id="_Trazado_compuesto_11" data-name="&lt;Trazado compuesto&gt;" class="cls-4" d="M187.76,80.43a10.69,10.69,0,0,0-4.85,8.39c0,3.1,4.85,8.75,4.85,8.75s4.85-11.25,4.85-14.35S190.44,78.88,187.76,80.43Zm0,8.13c-1.28.73-2.31.14-2.31-1.34a5.09,5.09,0,0,1,2.31-4c1.27-.74,2.31-.14,2.31,1.33A5.13,5.13,0,0,1,187.76,88.56Z"/><path id="_Trazado_compuesto_12" data-name="&lt;Trazado compuesto&gt;" class="cls-4" d="M240.4,84c0,3.38,5.3,15.7,5.3,15.7S251,93.54,251,90.16A11.72,11.72,0,0,0,245.7,81C242.77,79.28,240.4,80.65,240.4,84Zm2.77,1.45c0-1.61,1.14-2.26,2.53-1.46a5.59,5.59,0,0,1,2.53,4.38c0,1.62-1.13,2.27-2.53,1.47A5.62,5.62,0,0,1,243.17,85.48Z"/><path id="_Trazado_compuesto_13" data-name="&lt;Trazado compuesto&gt;" class="cls-4" d="M140.48,67.5a12.7,12.7,0,0,0-5.76,10c0,3.66,5.76,10.37,5.76,10.37s5.75-13.35,5.75-17S143.65,65.66,140.48,67.5Zm0,9.64c-1.52.88-2.75.17-2.75-1.58a6,6,0,0,1,2.75-4.75c1.51-.88,2.74-.17,2.74,1.58A6.06,6.06,0,0,1,140.48,77.14Z"/><g id="_Grupo_43" data-name="&lt;Grupo&gt;"><path id="_Trazado_115" data-name="&lt;Trazado&gt;" class="cls-11" d="M99.64,150.4a9.12,9.12,0,0,1-4.14,7.16c-2.28,1.32-4.13.25-4.13-2.39A9.15,9.15,0,0,1,95.5,148C97.79,146.69,99.64,147.76,99.64,150.4Z"/><path id="_Trazado_116" data-name="&lt;Trazado&gt;" class="cls-11" d="M87.14,146.22A4.7,4.7,0,0,1,85,149.9c-1.17.67-2.12.12-2.12-1.23A4.71,4.71,0,0,1,85,145C86.19,144.32,87.14,144.87,87.14,146.22Z"/><path id="_Trazado_117" data-name="&lt;Trazado&gt;" class="cls-11" d="M71.23,102.94a4.71,4.71,0,0,1-2.12,3.68c-1.17.67-2.12.13-2.12-1.23a4.68,4.68,0,0,1,2.12-3.67C70.28,101,71.23,101.59,71.23,102.94Z"/><path id="_Trazado_118" data-name="&lt;Trazado&gt;" class="cls-11" d="M61.83,188a4.68,4.68,0,0,1-2.13,3.68c-1.17.68-2.12.13-2.12-1.23a4.68,4.68,0,0,1,2.12-3.67C60.88,186.1,61.83,186.65,61.83,188Z"/><path id="_Trazado_119" data-name="&lt;Trazado&gt;" class="cls-11" d="M160.09,137.63A4.68,4.68,0,0,1,158,141.3c-1.18.68-2.13.13-2.13-1.22A4.68,4.68,0,0,1,158,136.4C159.14,135.72,160.09,136.27,160.09,137.63Z"/><path id="_Trazado_120" data-name="&lt;Trazado&gt;" class="cls-11" d="M339.37,205.6a9.16,9.16,0,0,0,4.13,7.17c2.29,1.31,4.14.24,4.14-2.39a9.14,9.14,0,0,0-4.14-7.17C341.22,201.9,339.37,203,339.37,205.6Z"/><path id="_Trazado_121" data-name="&lt;Trazado&gt;" class="cls-11" d="M397.06,262.5a9.16,9.16,0,0,0,4.13,7.17c2.29,1.32,4.14.25,4.14-2.39a9.12,9.12,0,0,0-4.14-7.16C398.91,258.8,397.06,259.87,397.06,262.5Z"/><path id="_Trazado_122" data-name="&lt;Trazado&gt;" class="cls-11" d="M351.87,201.42A4.7,4.7,0,0,0,354,205.1c1.18.68,2.13.13,2.13-1.23A4.66,4.66,0,0,0,354,200.2C352.82,199.52,351.87,200.07,351.87,201.42Z"/><path id="_Trazado_123" data-name="&lt;Trazado&gt;" class="cls-11" d="M332.24,100.2a4.7,4.7,0,0,0,2.12,3.68c1.17.68,2.12.13,2.12-1.23A4.68,4.68,0,0,0,334.36,99C333.19,98.3,332.24,98.85,332.24,100.2Z"/><path id="_Trazado_124" data-name="&lt;Trazado&gt;" class="cls-11" d="M403.21,173a4.7,4.7,0,0,0,2.12,3.68c1.17.68,2.12.13,2.12-1.22a4.7,4.7,0,0,0-2.12-3.68C404.16,171.12,403.21,171.67,403.21,173Z"/><path id="_Trazado_125" data-name="&lt;Trazado&gt;" class="cls-11" d="M261.9,146.22A4.7,4.7,0,0,0,264,149.9c1.17.67,2.12.12,2.12-1.23A4.71,4.71,0,0,0,264,145C262.85,144.32,261.9,144.87,261.9,146.22Z"/><path id="_Trazado_126" data-name="&lt;Trazado&gt;" class="cls-11" d="M386,236.31a4.71,4.71,0,0,0,2.12,3.68c1.18.67,2.13.13,2.13-1.23a4.66,4.66,0,0,0-2.13-3.67C386.92,234.41,386,235,386,236.31Z"/><path id="_Trazado_127" data-name="&lt;Trazado&gt;" class="cls-11" d="M274.79,163a4.68,4.68,0,0,0,2.12,3.67c1.17.68,2.12.13,2.12-1.22a4.7,4.7,0,0,0-2.12-3.68C275.74,161.07,274.79,161.61,274.79,163Z"/></g></g></g></g></g></g></svg>